<svg xmlns="http://www.w3.org/2000/svg" width="14.355" height="15.943" viewBox="0 0 14.355 15.943">
  <path id="Bag" d="M-20.022,7.375V5.981A3.986,3.986,0,0,0-24.008,2a3.986,3.986,0,0,0-3.986,3.986V7.375h-3.192v8.072a2.491,2.491,0,0,0,2.491,2.491h9.373a2.491,2.491,0,0,0,2.491-2.491V7.375ZM-27,5.981a2.99,2.99,0,0,1,2.989-2.99,2.99,2.99,0,0,1,2.989,2.99V7.375H-27Zm9.17,9.466a1.494,1.494,0,0,1-1.5,1.494h-9.373a1.494,1.494,0,0,1-1.5-1.494V8.371h12.363Z" transform="translate(31.186 -1.995)"/>
</svg>
