<svg xmlns="http://www.w3.org/2000/svg" width="162.577" height="41.753" viewBox="0 0 162.577 41.753">
  <g id="Logo_GreyScale" transform="translate(-2.92 -2.594)">
    <path id="Union_1" data-name="Union 1" d="M76.745,40.751c-.805-.127-1.623-.2-2.413-.392a10.953,10.953,0,0,1-6.795-4.915,17.369,17.369,0,0,1-2.468-6.812,28.97,28.97,0,0,1-.216-6.918,19.091,19.091,0,0,1,2.289-8.121A10.963,10.963,0,0,1,73.83,8.225a12.723,12.723,0,0,1,6.858-.1,11.041,11.041,0,0,1,6.444,4.746,16.5,16.5,0,0,1,1.97,4.236c.106.333-.052.462-.309.563a4.246,4.246,0,0,1-3.462-.224,5.011,5.011,0,0,1-2.267-2.182,6.343,6.343,0,0,0-2.949-2.934,7.063,7.063,0,0,0-5.161-.112,7.319,7.319,0,0,0-4.476,4.808,18.127,18.127,0,0,0-1,4.989,25.532,25.532,0,0,0,.2,5.926,12.312,12.312,0,0,0,2.359,6.033A7.017,7.017,0,0,0,78.6,36.588a6.633,6.633,0,0,0,3.8-1.5,6.221,6.221,0,0,0,2.1-4.5c.057-.78.009-1.569.009-2.395-.618,0-1.212.008-1.806,0a3.552,3.552,0,0,1-3.536-3.679c.008-.314.124-.408.42-.408q1.931,0,3.863,0,2.254,0,4.509,0A1.235,1.235,0,0,1,89.242,25.4c0,3.811.013,7.622,0,11.433a3.553,3.553,0,0,1-3.723,3.4c-.277-.015-.367-.141-.376-.382-.018-.5-.034-1-.053-1.5-.006-.145-.017-.291-.028-.482-.459.369-.864.72-1.3,1.034a9.9,9.9,0,0,1-5.2,1.786c-.136.01-.272.039-.407.06Zm-27.324,0c-.82-.124-1.653-.191-2.456-.381a10.933,10.933,0,0,1-6.6-4.583,16.275,16.275,0,0,1-2.516-6.136,27.906,27.906,0,0,1-.245-9.3,17.008,17.008,0,0,1,2.876-7.906,10.777,10.777,0,0,1,6.911-4.458,12.3,12.3,0,0,1,7.382.659,11.13,11.13,0,0,1,4.548,3.646,15.486,15.486,0,0,1,2.361,4.772.414.414,0,0,1-.288.6,4.308,4.308,0,0,1-3.754-.376A4.982,4.982,0,0,1,55.684,15.3a6.806,6.806,0,0,0-2.564-2.766,6.684,6.684,0,0,0-3.951-.668,6.477,6.477,0,0,0-4.594,2.452,10.287,10.287,0,0,0-2,4.374,25.081,25.081,0,0,0-.171,9.94,11.766,11.766,0,0,0,2.224,5.338,6.657,6.657,0,0,0,4.779,2.62,7.545,7.545,0,0,0,5.127-1.152,5.759,5.759,0,0,0,2.459-4.028c.145-.938.113-1.9.176-2.856.019-.3-.1-.369-.383-.372-.164,0-.329,0-.494,0a9.183,9.183,0,0,1-1.744-.1,3.484,3.484,0,0,1-2.76-3.717c.008-.1.174-.232.285-.252a3.581,3.581,0,0,1,.664-.015h7.58c1.068,0,1.533.484,1.532,1.559q0,5.467,0,10.933a3.5,3.5,0,0,1-2.559,3.48,6.337,6.337,0,0,1-1.189.148c-.244.025-.349-.093-.357-.341-.019-.648-.055-1.3-.086-2a1.409,1.409,0,0,0-.243.149,9.746,9.746,0,0,1-6.293,2.659c-.123.009-.244.037-.366.057ZM148.21,39.74a7.955,7.955,0,0,1-4.06-4.259,16.3,16.3,0,0,1-1.265-6.551,18.026,18.026,0,0,1,.843-6.176,9.616,9.616,0,0,1,3.066-4.6,8.576,8.576,0,0,1,5.788-1.774,8.49,8.49,0,0,1,8.129,6.369,17.351,17.351,0,0,1,.753,5.566,1.263,1.263,0,0,1-1.374,1.365q-3.582,0-7.163,0H147.28c0,.392-.02.749,0,1.1a7.321,7.321,0,0,0,1.356,4.03,4.771,4.771,0,0,0,3.726,1.97,6.434,6.434,0,0,0,4.585-1.492,3.7,3.7,0,0,1,4.056-.424.752.752,0,0,1,.317,1.2,8.634,8.634,0,0,1-4.748,3.9,13.306,13.306,0,0,1-4.062.677A10.617,10.617,0,0,1,148.21,39.74Zm1.423-18.812c-1.7,1.168-2.091,3-2.307,4.929h9.636a.763.763,0,0,0,.031-.182,8.958,8.958,0,0,0-.792-3.032,4.344,4.344,0,0,0-3.987-2.484A4.615,4.615,0,0,0,149.632,20.927ZM126.421,40.095a5.266,5.266,0,0,1-3.326-4.016,11.884,11.884,0,0,1-.262-2.508c-.024-4.337-.013-8.674-.011-13.011a3.625,3.625,0,0,1,2.734-3.662,6.287,6.287,0,0,1,1.15-.13c.291-.029.385.118.38.4q-.029,1.392-.03,2.783c0,4.365-.014,8.729.008,13.094a5.7,5.7,0,0,0,.431,2.394,2.1,2.1,0,0,0,1.647,1.244,6.4,6.4,0,0,0,5.108-1.471c1.563-1.177,1.575-1.209,1.575-3.144,0-3.88.007-7.76,0-11.64a3.692,3.692,0,0,1,3.929-3.668c.326.014.3.205.3.419q0,4.137,0,8.273,0,5.508,0,11.016a3.652,3.652,0,0,1-3.829,3.761c-.3,0-.421-.084-.41-.4.021-.605.007-1.212.007-1.778a33.821,33.821,0,0,1-2.943,1.746,8.481,8.481,0,0,1-3.608.842A7.9,7.9,0,0,1,126.421,40.095ZM98.788,39.9a23.376,23.376,0,0,1-2.117-1.358c-.472.392-.949.853-1.489,1.221a3.169,3.169,0,0,1-2.033.44.434.434,0,0,1-.279-.3,4.375,4.375,0,0,1-.009-.745q0-9.812,0-19.622,0-3.761.011-7.522a3.653,3.653,0,0,1,3.756-3.789c.333,0,.46.072.458.434-.014,3.1-.008,6.208-.006,9.311,0,.1.017.206.026.3.558-.373,1.074-.761,1.631-1.08a6.561,6.561,0,0,1,3.062-.806,9.456,9.456,0,0,1,5.312,1.222,8.861,8.861,0,0,1,3.768,4.7,18.607,18.607,0,0,1,.964,7.805,14.958,14.958,0,0,1-1.114,5.073,8.3,8.3,0,0,1-6.858,5.283,13.348,13.348,0,0,1-1.823.138A7.081,7.081,0,0,1,98.788,39.9Zm-1.6-16.929a.825.825,0,0,0-.109.428c-.007,1.69-.005,3.38-.005,5.069h.005c0,1.481.046,2.965-.019,4.444a2.269,2.269,0,0,0,.695,1.814,11.372,11.372,0,0,0,1.1,1.01,5.386,5.386,0,0,0,4.711,1,4.474,4.474,0,0,0,3.013-2.7,11.9,11.9,0,0,0,.949-4.931,15.735,15.735,0,0,0-.692-5.445,4.612,4.612,0,0,0-3.036-3.215,6.463,6.463,0,0,0-1.823-.275A5.62,5.62,0,0,0,97.188,22.972Zm-84,17.6a.976.976,0,0,1-.227-.027c-.019,0-.034-.014-.053-.019s-.048-.018-.073-.027-.056-.017-.082-.03l-.016-.008,0,0c-.557-.282-10.2-5.287-12.363-14.752-1.69-7.39,2.961-17.237,3.16-17.652a.969.969,0,0,1,1.362-.42c.132.078,1.234.728,2.722,1.827a33.216,33.216,0,0,1,4.831-6.4.97.97,0,0,1,1.331-.027,24.835,24.835,0,0,1,2.2,2.354A48.043,48.043,0,0,1,22.145.171.963.963,0,0,1,22.87.016a.974.974,0,0,1,.622.405c.267.388,6.509,9.663,4.823,21.4C26.752,32.7,14.207,40.134,13.673,40.445c-.012.007-.026.009-.038.016a.9.9,0,0,1-.109.049.447.447,0,0,1-.054.019c-.02.006-.039.015-.06.02a1.008,1.008,0,0,1-.224.029Zm-3.041-22a31.061,31.061,0,0,0,3.125,19.234c1.363-2.241,3.749-7.716,1.582-16.313a15.257,15.257,0,0,0-3.678-6.249A14.2,14.2,0,0,0,10.143,18.574ZM2.26,25.281A18.444,18.444,0,0,0,7.287,33.95,24.351,24.351,0,0,1,3.978,21.682,23.484,23.484,0,0,1,6.674,11.2c-.721-.542-1.36-.984-1.839-1.3C3.731,12.537,1.013,19.835,2.26,25.281Zm3.657-3.6A22.524,22.524,0,0,0,9.433,33.71a32.266,32.266,0,0,1-1.2-15.461A16.768,16.768,0,0,1,9.72,13.766c-.5-.471-.994-.912-1.48-1.32A21.3,21.3,0,0,0,5.917,21.681Zm6.2-8.284a17.856,17.856,0,0,1,4.616,7.624,25.828,25.828,0,0,1,.267,12.687,21.293,21.293,0,0,0,3.639-11.6c0-5.688-2.568-10.541-4.824-13.708A29.7,29.7,0,0,0,12.112,13.4Zm5.07-6.452c2.476,3.378,5.39,8.719,5.39,15.161a22.788,22.788,0,0,1-3.149,11.4c3.118-3.029,6.286-7.179,6.974-11.963,1.3-9.012-2.54-16.678-3.981-19.173A49.76,49.76,0,0,0,17.182,6.945Zm-8,3.742c.49.4.995.839,1.5,1.307a32.723,32.723,0,0,1,3.924-5.178c-.575-.706-1.083-1.271-1.458-1.665A33.84,33.84,0,0,0,9.179,10.686Zm105.78,29.151c0-.513,0-1.025,0-1.538V25.745h0c0-4.573.034-9.144-.015-13.716a3.742,3.742,0,0,1,3.8-3.8c.408.022.474.158.473.513-.012,2.717-.007,5.432-.007,8.147q0,9.768,0,19.537a3.661,3.661,0,0,1-2.7,3.655,6.1,6.1,0,0,1-1.232.141l-.041,0C114.993,40.221,114.957,40.043,114.958,39.837Z" transform="translate(3.497 3.096)" fill="#191919" stroke="rgba(0,0,0,0)" stroke-width="1"/>
  </g>
</svg>
