<svg xmlns="http://www.w3.org/2000/svg" width="14.656" height="17" viewBox="0 0 14.656 17">
  <path id="User" d="M-2356.959-218.415a5.8,5.8,0,0,0-5.8-5.8,5.8,5.8,0,0,0-5.8,5.8h-1.031a6.836,6.836,0,0,1,6.828-6.829,6.836,6.836,0,0,1,6.828,6.829Zm-9.9-11.877a4.128,4.128,0,0,1,4.123-4.123,4.127,4.127,0,0,1,4.123,4.123,4.127,4.127,0,0,1-4.123,4.123A4.128,4.128,0,0,1-2366.858-230.292Zm1.031,0a3.1,3.1,0,0,0,3.093,3.092,3.1,3.1,0,0,0,3.093-3.092,3.1,3.1,0,0,0-3.093-3.092A3.1,3.1,0,0,0-2365.827-230.292Z" transform="translate(2370.086 234.915)" stroke="rgba(0,0,0,0)" stroke-width="1"/>
</svg>
